<?xml version="1.0" encoding="UTF-8"?> <svg xmlns="http://www.w3.org/2000/svg" id="Layer_2" data-name="Layer 2" viewBox="0 0 96.1 71.79"><defs><style> .cls-1 { fill: #fff; stroke-width: 0px; } </style></defs><g id="_Слой_1" data-name="Слой 1"><g><path class="cls-1" d="m62.33,12.26h-11.36l-10.81,11.84V.45h-8.77v5.73c-.29-.37-.59-.74-.93-1.09C27.28,1.71,22.68,0,16.81,0,10.01,0,6.15,3.04,4.11,5.59,1.57,8.76.43,13.08,1.22,16.6c2.03,9.12,10.49,10.57,16.7,11.38,4.91.64,9.6,1.53,9.47,5.9-.13,4.54-5.24,5.65-8.6,5.65-8.74,0-9.04-6.46-9.04-6.46H.35c.14,2.43.87,6.32,3.86,9.67,3.27,3.66,8.18,5.52,14.58,5.52,4.91,0,9.39-1.6,12.6-4.44v3.91h8.77v-11.16l3.1-3.39,8.86,14.56h10.21l-12.89-21.32,12.89-14.13Zm-52.33,2.32c-.77-3.38,2.6-6.38,6.97-6.38,3.93,0,7.88.88,9.38,6.37h5.04v8.37c-6.29-5.17-19.92-1.93-21.39-8.36Z"></path><g><path class="cls-1" d="m3.02,68.77c.26.09.56.13.91.13.43,0,.78-.13,1.04-.39.26-.26.43-.6.52-.99L0,55.9h3.65l3.52,8.33,3.09-8.33h3.47l-4.94,11.44c-.65,1.51-1.32,2.63-2.05,3.35-.73.73-1.53,1.1-2.42,1.1-.3,0-.54,0-.73-.04-.22-.02-.39-.06-.54-.11l-.41-.13c-.11-.04-.22-.09-.32-.11v-2.94c.19.13.43.24.71.3Z"></path><path class="cls-1" d="m19.99,67.04c-.22.06-.45.11-.71.17-.26.04-.54.09-.82.11-.28.04-.56.04-.82.04-.67,0-1.23-.06-1.75-.17-.5-.13-.93-.3-1.27-.56-.35-.26-.6-.6-.78-1.04-.17-.41-.26-.93-.26-1.53v-4.14h2.98v3.56c0,.32.04.6.13.8.06.22.19.39.37.52.17.13.37.22.63.26.26.04.56.06.91.06.52,0,.91-.04,1.21-.13.3-.11.54-.22.71-.32v-4.75h2.98v11.48h-2.98v-4.53c-.13.04-.3.11-.52.17Z"></path><path class="cls-1" d="m35.34,69.97c.02.22.09.41.15.52.06.15.13.24.22.3.09.06.15.11.26.13v.47h-3.3l-.17-.54c-.09-.22-.11-.47-.11-.8l-.67.67c-.24.19-.47.37-.76.52-.28.15-.58.28-.95.37-.37.09-.8.13-1.3.13s-.99-.06-1.42-.22-.8-.39-1.12-.67c-.3-.3-.56-.67-.73-1.12-.17-.43-.26-.95-.26-1.53,0-.47.06-.91.22-1.32.15-.41.37-.76.63-1.06.28-.3.6-.56.99-.76.39-.22.82-.35,1.32-.41l2.91-.43c.11-.02.22-.02.35-.06.13-.02.24-.06.35-.15.11-.06.19-.15.26-.26.06-.13.11-.28.11-.47s-.04-.37-.09-.52c-.06-.17-.17-.3-.3-.41-.15-.13-.32-.22-.56-.28-.24-.06-.54-.09-.88-.09-.41,0-.71.04-.95.11-.26.09-.45.22-.58.35-.15.15-.26.32-.32.5l-.13.63h-2.98c0-.13.02-.32.06-.58.04-.24.13-.52.26-.82.11-.28.3-.58.52-.88.22-.3.5-.58.88-.84.35-.24.8-.45,1.32-.6.52-.15,1.12-.24,1.86-.26,1.01,0,1.86.11,2.5.3.63.22,1.12.5,1.49.82.35.35.58.71.71,1.12.11.41.17.82.17,1.23v6.09c0,.35.02.63.06.84Zm-3.58-3.93c-.19.09-.43.17-.73.22l-.8.15c-.35.06-.65.13-.91.22-.26.09-.47.19-.65.32-.17.15-.3.32-.39.52-.09.19-.13.43-.13.73,0,.24.04.45.11.63.09.19.19.32.35.45.13.11.28.22.45.26.19.06.39.09.6.09.11,0,.26-.02.43-.04.17-.02.35-.06.56-.13.19-.09.39-.17.58-.3.19-.11.37-.28.52-.47.17-.19.3-.43.39-.73.09-.28.15-.6.15-.99v-1.17c-.17.11-.37.19-.54.26Z"></path><path class="cls-1" d="m43.99,63.18c-.09-.24-.22-.43-.37-.58-.17-.17-.37-.28-.58-.37-.24-.06-.52-.11-.84-.11-.5,0-.89.11-1.19.35-.3.24-.54.52-.69.86-.17.37-.26.76-.32,1.17-.04.41-.09.8-.09,1.17s.02.78.06,1.19c.04.43.13.8.3,1.14.15.35.37.65.69.86.3.24.71.35,1.23.35.35,0,.65-.06.91-.22.24-.13.45-.3.63-.5.17-.22.3-.43.39-.67.06-.22.11-.43.11-.63h3.11c0,.19-.02.43-.09.73-.09.32-.19.63-.35.97-.15.32-.37.67-.6,1.01-.28.35-.58.65-.97.91-.39.28-.82.5-1.34.67-.52.17-1.12.26-1.79.26-.86,0-1.64-.13-2.31-.39-.67-.28-1.23-.67-1.68-1.19-.45-.52-.8-1.14-1.04-1.92-.24-.76-.37-1.62-.37-2.59s.13-1.86.39-2.61c.26-.73.63-1.38,1.1-1.9.47-.52,1.04-.91,1.7-1.17.65-.28,1.4-.41,2.2-.41.35,0,.71.04,1.1.09.37.04.73.15,1.1.28.37.15.71.32,1.06.54.32.22.63.5.91.82.26.32.47.71.65,1.14.17.43.28.95.32,1.53h-3.11c-.06-.3-.13-.58-.24-.8Z"></path><path class="cls-1" d="m58.05,59.92v2.42h-3.47v9.07h-2.98v-9.07h-3.47v-2.42h9.93Z"></path><path class="cls-1" d="m66.66,64.06v-4.14h2.98v11.48h-2.98v-4.92h-4.38v4.92h-2.98v-11.48h2.98v4.14h4.38Z"></path><path class="cls-1" d="m74.98,67l4.19-7.08h3.13v11.48h-2.98v-6.93h-.04l-4.06,6.93h-3.26v-11.48h2.98v7.08h.04Z"></path><path class="cls-1" d="m91.93,59.92h3.97l-4.75,4.77,4.94,6.71h-3.89l-3.37-4.86-1.21,1.23v3.63h-2.98v-11.48h2.98v4.36l4.3-4.36Z"></path></g></g></g></svg> 