<?xml version="1.0" encoding="UTF-8"?> <svg xmlns="http://www.w3.org/2000/svg" id="Layer_2" data-name="Layer 2" viewBox="0 0 168.32 49.24"><defs><style> .cls-1 { fill: #4d5759; } .cls-1, .cls-2 { stroke-width: 0px; } .cls-2 { fill: #b1ec52; } </style></defs><g id="_Слой_1" data-name="Слой 1"><g><path class="cls-2" d="m12.31,0C5.51,0,0,5.51,0,12.31v24.62c0,6.8,5.51,12.31,12.31,12.31h24.62c6.8,0,12.31-5.51,12.31-12.31V0H12.31Z"></path><path class="cls-1" d="m40.69,18.46h-5.91l-5.62,6.16v-12.31h-4.56v2.98c-.15-.19-.31-.38-.48-.57-1.66-1.76-4.05-2.65-7.11-2.65-3.53,0-5.54,1.58-6.61,2.91-1.32,1.65-1.91,3.9-1.5,5.73,1.06,4.74,5.46,5.5,8.69,5.92,2.55.33,4.99.8,4.93,3.07-.07,2.36-2.73,2.94-4.48,2.94-4.55,0-4.7-3.36-4.7-3.36h-4.89c.07,1.26.45,3.29,2.01,5.03,1.7,1.91,4.26,2.87,7.59,2.87,2.56,0,4.89-.83,6.55-2.31v2.03h4.56v-5.81l1.61-1.77,4.61,7.58h5.31l-6.71-11.09,6.71-7.35Zm-27.23,1.21c-.4-1.76,1.35-3.32,3.63-3.32,2.05,0,4.1.46,4.88,3.31h2.62v4.36c-3.27-2.69-10.37-1-11.13-4.35Z"></path><g><path class="cls-1" d="m60.85,33.82c.31.1.66.15,1.07.15.51,0,.92-.15,1.23-.46.31-.31.51-.72.61-1.17l-6.49-13.74h4.32l4.16,9.86,3.65-9.86h4.11l-5.85,13.54c-.77,1.79-1.56,3.12-2.43,3.96-.87.87-1.81,1.3-2.86,1.3-.36,0-.64,0-.87-.05-.26-.03-.46-.08-.64-.13l-.49-.15c-.13-.05-.26-.1-.38-.13v-3.47c.23.15.51.28.84.36Z"></path><path class="cls-1" d="m80.55,31.78c-.26.08-.54.13-.84.2-.31.05-.64.1-.97.13-.33.05-.66.05-.97.05-.79,0-1.46-.08-2.07-.2-.59-.15-1.1-.36-1.51-.66s-.72-.72-.92-1.23c-.2-.49-.31-1.1-.31-1.81v-4.9h3.52v4.21c0,.38.05.72.15.94.08.26.23.46.43.61.2.15.43.26.74.31s.66.08,1.07.08c.61,0,1.07-.05,1.43-.15.36-.13.64-.26.84-.38v-5.62h3.52v13.59h-3.52v-5.36c-.15.05-.36.13-.61.2Z"></path><path class="cls-1" d="m98.33,35.25c.03.26.1.49.18.61.08.18.15.28.26.36.1.08.18.13.31.15v.56h-3.91l-.2-.64c-.1-.26-.13-.56-.13-.95l-.79.79c-.28.23-.56.43-.89.61-.33.18-.69.33-1.12.43-.43.1-.95.15-1.53.15s-1.17-.08-1.69-.26c-.51-.18-.94-.46-1.33-.79-.36-.36-.66-.79-.87-1.33-.2-.51-.31-1.12-.31-1.81,0-.56.08-1.07.26-1.56.18-.49.43-.89.74-1.25.33-.36.72-.66,1.17-.89.46-.26.97-.41,1.56-.49l3.45-.51c.13-.03.26-.03.41-.08.15-.03.28-.08.41-.18.13-.08.23-.18.31-.31.08-.15.13-.33.13-.56s-.05-.43-.1-.61c-.08-.2-.2-.36-.36-.49-.18-.15-.38-.26-.66-.33-.28-.08-.64-.1-1.05-.1-.49,0-.84.05-1.12.13-.31.1-.54.26-.69.41-.18.18-.31.38-.38.59l-.15.74h-3.52c0-.15.03-.38.08-.69.05-.28.15-.61.31-.97.13-.33.36-.69.61-1.05.26-.36.59-.69,1.05-1,.41-.28.95-.54,1.56-.72.61-.18,1.33-.28,2.2-.31,1.2,0,2.2.13,2.96.36.74.26,1.33.59,1.76.97.41.41.69.84.84,1.33.13.49.2.97.2,1.46v7.2c0,.41.03.74.08,1Zm-4.24-4.65c-.23.1-.51.2-.87.26l-.94.18c-.41.08-.77.15-1.07.26-.31.1-.56.23-.77.38-.2.18-.36.38-.46.61-.1.23-.15.51-.15.87,0,.28.05.54.13.74.1.23.23.38.41.54.15.13.33.26.54.31.23.08.46.1.72.1.13,0,.31-.03.51-.05.2-.03.41-.08.66-.15.23-.1.46-.2.69-.36.23-.13.43-.33.61-.56.2-.23.36-.51.46-.87.1-.33.18-.72.18-1.17v-1.38c-.2.13-.43.23-.64.31Z"></path><path class="cls-1" d="m108.19,27.21c-.1-.28-.26-.51-.43-.69-.2-.2-.43-.33-.69-.43-.28-.08-.61-.13-1-.13-.59,0-1.05.13-1.4.41-.36.28-.64.61-.82,1.02-.2.43-.31.89-.38,1.38-.05.49-.1.94-.1,1.38s.03.92.08,1.4c.05.51.15.94.36,1.35.18.41.43.77.82,1.02.36.28.84.41,1.46.41.41,0,.77-.08,1.07-.26.28-.15.54-.36.74-.59.2-.26.36-.51.46-.79.08-.26.13-.51.13-.74h3.68c0,.23-.03.51-.1.87-.1.38-.23.74-.41,1.15-.18.38-.43.79-.72,1.2-.33.41-.69.77-1.15,1.07-.46.33-.97.59-1.58.79-.61.2-1.33.31-2.12.31-1.02,0-1.94-.15-2.73-.46-.79-.33-1.46-.79-1.99-1.4-.54-.61-.95-1.35-1.23-2.27-.28-.89-.43-1.92-.43-3.06s.15-2.2.46-3.09c.31-.87.74-1.63,1.3-2.25.56-.61,1.23-1.07,2.02-1.38.77-.33,1.66-.49,2.61-.49.41,0,.84.05,1.3.1.43.05.87.18,1.3.33.43.18.84.38,1.25.64.38.26.74.59,1.07.97.31.38.56.84.77,1.35.2.51.33,1.12.38,1.81h-3.68c-.08-.36-.15-.69-.28-.94Z"></path><path class="cls-1" d="m124.45,23.35v2.86h-4.11v10.73h-3.52v-10.73h-4.11v-2.86h11.75Z"></path><path class="cls-1" d="m134.25,28.26v-4.9h3.52v13.59h-3.52v-5.82h-5.18v5.82h-3.52v-13.59h3.52v4.9h5.18Z"></path><path class="cls-1" d="m143.71,31.73l4.96-8.38h3.7v13.59h-3.52v-8.2h-.05l-4.8,8.2h-3.86v-13.59h3.52v8.38h.05Z"></path><path class="cls-1" d="m163.39,23.35h4.7l-5.62,5.64,5.85,7.94h-4.6l-3.98-5.75-1.43,1.46v4.29h-3.52v-13.59h3.52v5.16l5.08-5.16Z"></path></g></g></g></svg> 