<?xml version="1.0" encoding="UTF-8"?> <svg xmlns="http://www.w3.org/2000/svg" id="Layer_2" data-name="Layer 2" viewBox="0 0 180 52"><defs><style> .cls-1, .cls-2, .cls-3 { stroke-width: 0px; } .cls-2 { fill: #a6a6a6; } .cls-3 { fill: #fff; } </style></defs><g id="Layer_1-2" data-name="Layer 1"><path class="cls-3" d="m179,46c0,2.77-2.29,5.02-5.13,5.02H6.13c-2.83,0-5.13-2.24-5.13-5.02V6C1,3.23,3.3.98,6.13.98h167.74c2.84,0,5.13,2.25,5.13,5.02v40Z"></path><path class="cls-2" d="m173.33,1.04c3.09,0,5.6,2.45,5.6,5.46v39c0,3.01-2.51,5.46-5.6,5.46H6.67c-3.09,0-5.6-2.45-5.6-5.46V6.5C1.07,3.49,3.58,1.04,6.67,1.04h166.67Zm0-1.04H6.67C3,0,0,2.93,0,6.5v39c0,3.57,3,6.5,6.67,6.5h166.67c3.67,0,6.67-2.93,6.67-6.5V6.5c0-3.57-3-6.5-6.67-6.5Z"></path><path class="cls-1" d="m40.17,25.72c-.04-4.19,3.52-6.23,3.68-6.32-2.01-2.86-5.14-3.26-6.23-3.29-2.62-.27-5.17,1.53-6.5,1.53s-3.42-1.5-5.64-1.46c-2.85.04-5.52,1.65-6.99,4.15-3.02,5.1-.77,12.59,2.13,16.72,1.45,2.02,3.14,4.27,5.35,4.19,2.17-.09,2.98-1.35,5.59-1.35s3.35,1.35,5.61,1.3c2.33-.04,3.79-2.03,5.19-4.07,1.67-2.31,2.35-4.59,2.37-4.71-.05-.02-4.52-1.68-4.56-6.7Z"></path><path class="cls-1" d="m35.9,13.4c1.17-1.42,1.96-3.35,1.74-5.32-1.69.07-3.8,1.14-5.01,2.53-1.07,1.22-2.03,3.23-1.79,5.12,1.89.14,3.84-.93,5.06-2.33Z"></path><path class="cls-1" d="m71.53,40.96h-3.03l-1.66-5.08h-5.77l-1.58,5.08h-2.95l5.71-17.3h3.53l5.74,17.3Zm-5.19-7.21l-1.5-4.52c-.16-.46-.46-1.55-.89-3.26h-.05c-.17.74-.46,1.82-.84,3.26l-1.47,4.52h4.76Z"></path><path class="cls-1" d="m86.22,34.56c0,2.12-.59,3.8-1.76,5.03-1.05,1.1-2.36,1.64-3.92,1.64-1.69,0-2.9-.59-3.63-1.77h-.05v6.57h-2.84v-13.45c0-1.33-.04-2.7-.11-4.11h2.5l.16,1.98h.05c.95-1.49,2.39-2.23,4.32-2.23,1.51,0,2.77.58,3.78,1.74,1.01,1.16,1.51,2.7,1.51,4.6Zm-2.9.1c0-1.21-.28-2.22-.84-3-.61-.82-1.44-1.23-2.47-1.23-.7,0-1.34.23-1.91.68-.57.45-.94,1.05-1.12,1.78-.09.34-.13.62-.13.85v2.08c0,.91.29,1.67.86,2.3.57.63,1.31.94,2.22.94,1.07,0,1.9-.4,2.5-1.21.6-.8.9-1.87.9-3.18Z"></path><path class="cls-1" d="m100.93,34.56c0,2.12-.59,3.8-1.77,5.03-1.05,1.1-2.36,1.64-3.92,1.64-1.69,0-2.9-.59-3.63-1.77h-.05v6.57h-2.84v-13.45c0-1.33-.04-2.7-.11-4.11h2.5l.16,1.98h.05c.95-1.49,2.39-2.23,4.32-2.23,1.51,0,2.77.58,3.78,1.74,1.01,1.16,1.51,2.7,1.51,4.6Zm-2.9.1c0-1.21-.28-2.22-.84-3-.61-.82-1.44-1.23-2.47-1.23-.7,0-1.34.23-1.91.68-.57.45-.94,1.05-1.12,1.78-.09.34-.13.62-.13.85v2.08c0,.91.29,1.67.85,2.3.57.62,1.31.94,2.23.94,1.07,0,1.9-.4,2.5-1.21.6-.8.9-1.87.9-3.18Z"></path><path class="cls-1" d="m117.39,36.1c0,1.47-.52,2.67-1.58,3.59-1.16,1.01-2.76,1.51-4.83,1.51-1.91,0-3.44-.36-4.6-1.08l.66-2.31c1.25.74,2.62,1.1,4.11,1.1,1.07,0,1.9-.24,2.5-.71.6-.47.89-1.1.89-1.89,0-.7-.25-1.29-.74-1.77-.49-.48-1.31-.93-2.45-1.34-3.11-1.13-4.66-2.78-4.66-4.96,0-1.42.54-2.59,1.63-3.5,1.08-.91,2.53-1.36,4.34-1.36,1.61,0,2.96.27,4.03.82l-.71,2.26c-1-.53-2.13-.8-3.4-.8-1,0-1.78.24-2.34.72-.47.43-.71.95-.71,1.57,0,.68.27,1.25.81,1.69.47.41,1.33.86,2.58,1.34,1.53.6,2.65,1.3,3.37,2.1.72.8,1.08,1.8,1.08,3Z"></path><path class="cls-1" d="m126.78,30.56h-3.13v6.06c0,1.54.55,2.31,1.66,2.31.51,0,.93-.04,1.26-.13l.08,2.1c-.56.2-1.3.31-2.21.31-1.12,0-2-.33-2.63-1-.63-.67-.95-1.79-.95-3.36v-6.29h-1.87v-2.08h1.87v-2.28l2.79-.82v3.11h3.13v2.08Z"></path><path class="cls-1" d="m140.92,34.62c0,1.92-.56,3.49-1.69,4.72-1.18,1.27-2.74,1.9-4.69,1.9s-3.37-.61-4.49-1.82c-1.11-1.21-1.67-2.75-1.67-4.59s.57-3.52,1.72-4.75c1.15-1.23,2.7-1.85,4.65-1.85s3.39.61,4.53,1.82c1.09,1.18,1.63,2.7,1.63,4.57Zm-2.95.09c0-1.15-.25-2.14-.76-2.96-.6-1-1.45-1.49-2.55-1.49s-2.01.5-2.61,1.49c-.51.82-.76,1.83-.76,3.01s.25,2.14.76,2.96c.61,1,1.47,1.49,2.58,1.49s1.94-.51,2.55-1.52c.52-.84.79-1.84.79-2.98Z"></path><path class="cls-1" d="m150.16,30.92c-.28-.05-.58-.08-.9-.08-1,0-1.77.37-2.32,1.1-.47.65-.71,1.47-.71,2.46v6.55h-2.84l.03-8.55c0-1.44-.04-2.75-.11-3.93h2.48l.1,2.39h.08c.3-.82.77-1.48,1.42-1.98.63-.45,1.32-.67,2.06-.67.26,0,.5.02.71.05v2.64Z"></path><path class="cls-1" d="m162.88,34.13c0,.5-.03.92-.1,1.26h-8.53c.03,1.23.45,2.17,1.24,2.82.72.58,1.65.87,2.79.87,1.26,0,2.42-.2,3.45-.59l.44,1.92c-1.21.51-2.64.77-4.29.77-1.98,0-3.54-.57-4.68-1.71-1.13-1.14-1.7-2.66-1.7-4.58s.53-3.45,1.58-4.7c1.1-1.33,2.6-2,4.47-2s3.24.67,4.19,2c.75,1.06,1.13,2.37,1.13,3.93Zm-2.71-.72c.02-.82-.17-1.53-.55-2.13-.49-.77-1.25-1.16-2.26-1.16-.93,0-1.69.38-2.26,1.13-.47.6-.76,1.32-.84,2.16h5.92Z"></path><path class="cls-1" d="m65.4,13.01c0,1.53-.47,2.68-1.41,3.46-.87.71-2.11,1.07-3.71,1.07-.79,0-1.47-.03-2.04-.1v-8.36c.74-.12,1.54-.18,2.41-.18,1.53,0,2.68.32,3.45.97.87.73,1.31,1.78,1.31,3.14Zm-1.47.04c0-.99-.27-1.75-.81-2.28-.54-.53-1.33-.79-2.36-.79-.44,0-.81.03-1.13.09v6.36c.17.03.49.04.94.04,1.07,0,1.89-.29,2.48-.87.58-.58.87-1.42.87-2.53Z"></path><path class="cls-1" d="m73.21,14.35c0,.94-.28,1.71-.83,2.32-.58.62-1.35.93-2.3.93s-1.66-.3-2.21-.9c-.55-.6-.82-1.35-.82-2.26s.28-1.73.85-2.33c.57-.6,1.33-.91,2.28-.91s1.66.3,2.23.89c.53.58.8,1.33.8,2.24Zm-1.45.04c0-.57-.13-1.05-.37-1.45-.29-.49-.71-.73-1.25-.73s-.99.24-1.28.73c-.25.4-.37.9-.37,1.48s.13,1.05.37,1.45c.3.49.72.73,1.27.73s.95-.25,1.25-.75c.26-.41.39-.9.39-1.47Z"></path><path class="cls-1" d="m83.69,11.33l-1.97,6.13h-1.28l-.81-2.66c-.21-.66-.37-1.32-.51-1.98h-.03c-.12.67-.29,1.33-.51,1.98l-.87,2.66h-1.29l-1.85-6.13h1.44l.71,2.91c.17.69.31,1.35.43,1.97h.03c.1-.51.28-1.16.52-1.95l.89-2.92h1.14l.85,2.86c.21.7.37,1.37.5,2.02h.04c.09-.63.24-1.3.43-2.02l.76-2.86h1.37Z"></path><path class="cls-1" d="m90.93,17.46h-1.4v-3.51c0-1.08-.42-1.62-1.27-1.62-.41,0-.75.15-1.01.45-.26.3-.39.65-.39,1.05v3.63h-1.4v-4.38c0-.54-.02-1.12-.05-1.75h1.23l.07.96h.04c.16-.3.41-.54.72-.74.38-.23.8-.34,1.27-.34.59,0,1.07.18,1.46.56.48.45.72,1.13.72,2.03v3.67Z"></path><path class="cls-1" d="m94.78,17.46h-1.4v-8.94h1.4v8.94Z"></path><path class="cls-1" d="m103.01,14.35c0,.94-.28,1.71-.83,2.32-.58.62-1.35.93-2.3.93s-1.66-.3-2.21-.9c-.55-.6-.82-1.35-.82-2.26s.28-1.73.85-2.33c.57-.6,1.33-.91,2.28-.91s1.66.3,2.23.89c.53.58.8,1.33.8,2.24Zm-1.45.04c0-.57-.12-1.05-.38-1.45-.29-.49-.71-.73-1.25-.73s-.99.24-1.28.73c-.25.4-.37.9-.37,1.48s.13,1.05.37,1.45c.3.49.72.73,1.27.73s.95-.25,1.25-.75c.26-.41.39-.9.39-1.47Z"></path><path class="cls-1" d="m109.77,17.46h-1.25l-.1-.71h-.04c-.43.56-1.04.84-1.84.84-.59,0-1.07-.19-1.43-.56-.33-.34-.49-.75-.49-1.25,0-.75.32-1.32.96-1.71.64-.4,1.55-.59,2.71-.58v-.11c0-.81-.44-1.21-1.31-1.21-.62,0-1.17.15-1.64.45l-.28-.89c.58-.35,1.31-.53,2.16-.53,1.64,0,2.47.85,2.47,2.53v2.26c0,.61.03,1.1.09,1.46Zm-1.45-2.11v-.95c-1.54-.03-2.31.39-2.31,1.23,0,.32.09.56.27.72s.41.24.68.24c.31,0,.59-.09.86-.28.26-.19.42-.43.48-.73.01-.07.02-.15.02-.24Z"></path><path class="cls-1" d="m117.71,17.46h-1.24l-.07-.98h-.04c-.4.75-1.07,1.12-2.02,1.12-.76,0-1.39-.29-1.89-.87s-.75-1.33-.75-2.26c0-.99.27-1.8.82-2.41.53-.57,1.17-.86,1.94-.86.84,0,1.43.28,1.77.83h.03v-3.52h1.4v7.29c0,.6.02,1.15.05,1.65Zm-1.45-2.58v-1.02c0-.18-.01-.32-.04-.43-.08-.33-.25-.6-.51-.83-.26-.22-.57-.33-.93-.33-.52,0-.93.2-1.23.61-.3.4-.45.92-.45,1.55s.14,1.1.43,1.48c.3.4.71.6,1.22.6.46,0,.82-.17,1.1-.5.27-.31.4-.69.4-1.12Z"></path><path class="cls-1" d="m129.66,14.35c0,.94-.28,1.71-.83,2.32-.58.62-1.34.93-2.3.93s-1.66-.3-2.2-.9c-.55-.6-.82-1.35-.82-2.26s.28-1.73.85-2.33c.56-.6,1.32-.91,2.28-.91s1.66.3,2.22.89c.53.58.8,1.33.8,2.24Zm-1.45.04c0-.57-.12-1.05-.38-1.45-.29-.49-.71-.73-1.25-.73s-.99.24-1.28.73c-.25.4-.37.9-.37,1.48s.12,1.05.37,1.45c.3.49.72.73,1.27.73s.95-.25,1.26-.75c.26-.41.39-.9.39-1.47Z"></path><path class="cls-1" d="m137.18,17.46h-1.4v-3.51c0-1.08-.42-1.62-1.27-1.62-.41,0-.75.15-1.01.45-.26.3-.39.65-.39,1.05v3.63h-1.4v-4.38c0-.54-.02-1.12-.05-1.75h1.23l.07.96h.04c.16-.3.41-.54.72-.74.38-.23.8-.34,1.27-.34.58,0,1.07.18,1.46.56.48.45.72,1.13.72,2.03v3.67Z"></path><path class="cls-1" d="m146.58,12.36h-1.54v2.98c0,.76.27,1.13.81,1.13.25,0,.46-.02.62-.06l.04,1.03c-.28.1-.64.15-1.09.15-.55,0-.98-.16-1.29-.49-.31-.33-.47-.88-.47-1.65v-3.09h-.92v-1.02h.92v-1.12l1.37-.4v1.52h1.54v1.02h0Z"></path><path class="cls-1" d="m153.98,17.46h-1.4v-3.48c0-1.1-.42-1.65-1.26-1.65-.65,0-1.09.32-1.33.96-.04.13-.07.3-.07.49v3.69h-1.4v-8.94h1.4v3.69h.03c.44-.67,1.07-1.01,1.89-1.01.58,0,1.06.18,1.44.56.47.46.71,1.15.71,2.06v3.64Z"></path><path class="cls-1" d="m161.61,14.11c0,.24-.02.45-.05.62h-4.19c.02.61.22,1.07.61,1.39.35.29.81.43,1.37.43.62,0,1.19-.1,1.69-.29l.22.95c-.6.25-1.3.38-2.11.38-.97,0-1.74-.28-2.29-.84-.56-.56-.83-1.31-.83-2.25s.26-1.69.78-2.31c.54-.66,1.27-.98,2.2-.98s1.59.33,2.05.98c.38.52.56,1.16.56,1.93Zm-1.33-.35c.01-.4-.08-.75-.27-1.05-.24-.38-.61-.57-1.11-.57-.46,0-.83.18-1.11.56-.23.3-.37.65-.41,1.06h2.91Z"></path></g></svg> 