<?xml version="1.0" encoding="UTF-8"?> <svg xmlns="http://www.w3.org/2000/svg" xmlns:xlink="http://www.w3.org/1999/xlink" id="Layer_2" data-name="Layer 2" viewBox="0 0 92.71 31.52"><defs><style> .cls-1 { fill: url(#linear-gradient); } .cls-1, .cls-2 { stroke-width: 0px; } .cls-2 { fill: url(#linear-gradient-2); } </style><linearGradient id="linear-gradient" x1="87.9" y1="12.93" x2="7.6" y2="12.93" gradientUnits="userSpaceOnUse"><stop offset="0" stop-color="#32a570"></stop><stop offset="1" stop-color="#32a570" stop-opacity="0"></stop></linearGradient><linearGradient id="linear-gradient-2" x1="87.9" y1="15.76" x2="7.6" y2="15.76" xlink:href="#linear-gradient"></linearGradient></defs><g id="Layer_1-2" data-name="Layer 1"><path class="cls-1" d="m84.01,21.21s-2.33-1.19-6.39-2.78l2.06-5.28c7.85,3.06,8.47,3.64,8.47,5.54h-5.67,2.83l-1.31,2.52Zm-8.98-3.75c-5.15-1.86-10.53-3.4-15.98-4.56l1.19-5.54c5.7,1.22,11.33,2.83,16.72,4.77l-1.93,5.33ZM1.97,16.09l-1.97-5.32c5.42-2.01,11.11-3.54,16.89-4.56l.98,5.58c-5.45.96-10.8,2.41-15.91,4.3Zm54.36-3.73c-5.52-1.05-11.06-1.7-16.48-1.94l.25-5.66c5.68.25,11.5.94,17.29,2.04l-1.06,5.57Zm-35.73-1l-.82-5.61c5.66-.83,11.59-1.19,17.42-1.08l-.1,5.67c-5.52-.1-11.14.24-16.49,1.03Z"></path><polygon class="cls-2" points="72.04 31.52 69.41 26.5 85.06 18.29 76.85 2.63 81.87 0 92.71 20.67 72.04 31.52"></polygon></g></svg> 