<?xml version="1.0" encoding="UTF-8"?> <svg xmlns="http://www.w3.org/2000/svg" xmlns:xlink="http://www.w3.org/1999/xlink" id="Layer_2" data-name="Layer 2" viewBox="0 0 91.53 32.47"><defs><style> .cls-1 { fill: url(#linear-gradient); } .cls-1, .cls-2 { stroke-width: 0px; } .cls-2 { fill: url(#linear-gradient-2); } </style><linearGradient id="linear-gradient" x1="86.18" y1="14.38" x2="5.88" y2="14.38" gradientUnits="userSpaceOnUse"><stop offset="0" stop-color="#32a570"></stop><stop offset="1" stop-color="#32a570" stop-opacity="0"></stop></linearGradient><linearGradient id="linear-gradient-2" y1="16.23" x2="5.88" y2="16.23" xlink:href="#linear-gradient"></linearGradient></defs><g id="Layer_1-2" data-name="Layer 1"><path class="cls-1" d="m48.96,22.43c-5.3,0-10.56-.34-15.64-1l.74-5.62c4.84.63,9.86.96,14.91.96.55,0,1.1,0,1.65-.01l.08,5.67c-.57,0-1.15.01-1.73.01Zm19.05-1.4l-.82-5.61c7.81-1.15,13.49-2.71,16.19-3.54l1.67,5.42c-2.85.88-8.85,2.53-17.03,3.74Zm-51.76-3.21c-5.62-1.68-11.09-3.83-16.26-6.41l2.53-5.07c4.88,2.43,10.04,4.47,15.35,6.05l-1.62,5.43Z"></path><polygon class="cls-2" points="78.28 32.47 73.61 29.25 83.64 14.7 69.09 4.67 72.31 0 91.53 13.25 78.28 32.47"></polygon></g></svg> 