<?xml version="1.0" encoding="UTF-8"?> <svg xmlns="http://www.w3.org/2000/svg" xmlns:xlink="http://www.w3.org/1999/xlink" id="Layer_2" data-name="Layer 2" viewBox="0 0 179.75 52"><defs><style> .cls-1 { fill: url(#linear-gradient); } .cls-1, .cls-2, .cls-3, .cls-4, .cls-5, .cls-6, .cls-7 { stroke-width: 0px; } .cls-8 { stroke: #fff; stroke-miterlimit: 10; stroke-width: .16px; } .cls-2 { fill: url(#linear-gradient-4); } .cls-3 { fill: url(#linear-gradient-2); } .cls-4 { fill: url(#linear-gradient-3); } .cls-6 { fill: #a6a6a6; } .cls-7 { fill: #fff; } </style><linearGradient id="linear-gradient" x1="28.86" y1="-184.01" x2="7.05" y2="-161.67" gradientTransform="translate(0 -143.17) scale(1 -1)" gradientUnits="userSpaceOnUse"><stop offset="0" stop-color="#00a0ff"></stop><stop offset="0" stop-color="#00a1ff"></stop><stop offset=".26" stop-color="#00beff"></stop><stop offset=".51" stop-color="#00d2ff"></stop><stop offset=".76" stop-color="#00dfff"></stop><stop offset="1" stop-color="#00e3ff"></stop></linearGradient><linearGradient id="linear-gradient-2" x1="45.05" y1="-169.17" x2="12.83" y2="-169.17" gradientTransform="translate(0 -143.17) scale(1 -1)" gradientUnits="userSpaceOnUse"><stop offset="0" stop-color="#ffe000"></stop><stop offset=".41" stop-color="#ffbd00"></stop><stop offset=".78" stop-color="orange"></stop><stop offset="1" stop-color="#ff9c00"></stop></linearGradient><linearGradient id="linear-gradient-3" x1="22.02" y1="-176.96" x2="-7.56" y2="-146.66" gradientTransform="translate(0 -143.17) scale(1 -1)" gradientUnits="userSpaceOnUse"><stop offset="0" stop-color="#ff3a44"></stop><stop offset="1" stop-color="#c31162"></stop></linearGradient><linearGradient id="linear-gradient-4" x1="-.76" y1="-184.71" x2="12.45" y2="-171.18" gradientTransform="translate(0 -143.17) scale(1 -1)" gradientUnits="userSpaceOnUse"><stop offset="0" stop-color="#32a071"></stop><stop offset=".07" stop-color="#2da771"></stop><stop offset=".48" stop-color="#15cf74"></stop><stop offset=".8" stop-color="#06e775"></stop><stop offset="1" stop-color="#00f076"></stop></linearGradient></defs><g id="Layer_1-2" data-name="Layer 1"><path class="cls-7" d="m173.1,52H6.66c-3.66,0-6.66-2.93-6.66-6.5V6.5C0,2.93,3,0,6.66,0h166.44c3.66,0,6.66,2.93,6.66,6.5v39c0,3.57-3,6.5-6.66,6.5Z"></path><path class="cls-6" d="m173.1,1.04c3.08,0,5.59,2.45,5.59,5.46v39c0,3.01-2.51,5.46-5.59,5.46H6.66c-3.08,0-5.59-2.45-5.59-5.46V6.5C1.07,3.49,3.58,1.04,6.66,1.04h166.44Zm0-1.04H6.66C3,0,0,2.93,0,6.5v39c0,3.57,3,6.5,6.66,6.5h166.44c3.66,0,6.66-2.93,6.66-6.5V6.5c0-3.57-3-6.5-6.66-6.5Z"></path><path class="cls-8" d="m63.14,13.32c0,1.09-.33,1.95-.99,2.6-.75.77-1.74,1.16-2.94,1.16s-2.13-.39-2.94-1.17c-.81-.79-1.21-1.75-1.21-2.91s.4-2.12,1.21-2.9c.81-.78,1.79-1.17,2.94-1.17.57,0,1.12.12,1.64.33.52.22.94.51,1.25.87l-.7.69c-.53-.62-1.26-.92-2.19-.92-.84,0-1.57.29-2.18.86-.61.58-.92,1.33-.92,2.25s.31,1.68.92,2.25c.62.57,1.34.86,2.18.86.89,0,1.64-.29,2.23-.87.39-.38.61-.91.67-1.58h-2.9v-.94h3.87c.05.2.06.4.06.59Z"></path><path class="cls-8" d="m69.27,10.06h-3.63v2.47h3.28v.94h-3.28v2.47h3.63v.96h-4.66v-7.79h4.66v.96Z"></path><path class="cls-8" d="m73.6,16.9h-1.03v-6.84h-2.23v-.96h5.49v.96h-2.23v6.84Z"></path><path class="cls-8" d="m79.81,16.9v-7.79h1.03v7.79h-1.03Z"></path><path class="cls-8" d="m85.38,16.9h-1.02v-6.84h-2.24v-.96h5.49v.96h-2.24v6.84Z"></path><path class="cls-8" d="m98.01,15.89c-.79.79-1.76,1.18-2.93,1.18s-2.15-.39-2.93-1.18c-.79-.79-1.18-1.75-1.18-2.89s.39-2.11,1.18-2.89c.79-.79,1.76-1.18,2.93-1.18s2.13.39,2.92,1.19c.79.79,1.18,1.75,1.18,2.89s-.39,2.11-1.18,2.89Zm-5.1-.65c.59.58,1.31.88,2.17.88s1.58-.29,2.17-.88c.59-.58.89-1.33.89-2.24s-.3-1.66-.89-2.24c-.59-.58-1.31-.88-2.17-.88s-1.58.29-2.17.88c-.59.58-.89,1.33-.89,2.24s.3,1.66.89,2.24Z"></path><path class="cls-8" d="m100.63,16.9v-7.79h1.25l3.88,6.06h.04l-.04-1.5v-4.56h1.03v7.79h-1.07l-4.06-6.36h-.04l.04,1.5v4.86h-1.02Z"></path><path class="cls-5" d="m90.72,28.28c-3.13,0-5.68,2.32-5.68,5.53s2.55,5.53,5.68,5.53,5.69-2.35,5.69-5.53-2.55-5.53-5.69-5.53Zm0,8.88c-1.72,0-3.19-1.38-3.19-3.35s1.48-3.35,3.19-3.35,3.2,1.36,3.2,3.35-1.48,3.35-3.2,3.35Zm-12.4-8.88c-3.13,0-5.68,2.32-5.68,5.53s2.55,5.53,5.68,5.53,5.68-2.35,5.68-5.53-2.55-5.53-5.68-5.53Zm0,8.88c-1.72,0-3.2-1.38-3.2-3.35s1.48-3.35,3.2-3.35,3.19,1.36,3.19,3.35-1.48,3.35-3.19,3.35Zm-14.75-7.19v2.35h5.75c-.17,1.31-.62,2.28-1.31,2.95-.84.81-2.15,1.71-4.44,1.71-3.54,0-6.31-2.79-6.31-6.24s2.77-6.24,6.31-6.24c1.91,0,3.3.73,4.33,1.68l1.7-1.66c-1.44-1.34-3.35-2.37-6.03-2.37-4.85,0-8.93,3.85-8.93,8.59s4.08,8.59,8.93,8.59c2.62,0,4.59-.84,6.14-2.41,1.59-1.55,2.08-3.73,2.08-5.48,0-.55-.05-1.05-.13-1.47h-8.09Zm60.33,1.82c-.47-1.24-1.91-3.52-4.85-3.52s-5.34,2.24-5.34,5.53c0,3.1,2.4,5.53,5.62,5.53,2.6,0,4.1-1.55,4.72-2.45l-1.93-1.26c-.64.92-1.52,1.53-2.79,1.53s-2.16-.56-2.74-1.68l7.57-3.06-.26-.63Zm-7.72,1.84c-.07-2.13,1.7-3.22,2.96-3.22.99,0,1.83.48,2.11,1.17l-5.06,2.05Zm-6.16,5.36h2.49v-16.25h-2.49v16.25Zm-4.08-9.49h-.08c-.56-.65-1.63-1.23-2.98-1.23-2.84,0-5.43,2.43-5.43,5.55s2.59,5.51,5.43,5.51c1.35,0,2.42-.59,2.98-1.26h.08v.79c0,2.11-1.16,3.25-3.02,3.25-1.52,0-2.46-1.07-2.85-1.97l-2.17.88c.62,1.47,2.28,3.27,5.02,3.27,2.92,0,5.38-1.68,5.38-5.76v-9.93h-2.36v.9Zm-2.85,7.65c-1.72,0-3.15-1.4-3.15-3.33s1.44-3.37,3.15-3.37,3.02,1.42,3.02,3.37-1.33,3.33-3.02,3.33Zm32.46-14.41h-5.95v16.25h2.48v-6.16h3.47c2.76,0,5.46-1.95,5.46-5.05s-2.71-5.05-5.46-5.05Zm.07,7.83h-3.54v-5.57h3.54c1.85,0,2.91,1.5,2.91,2.79s-1.06,2.79-2.91,2.79Zm15.35-2.34c-1.79,0-3.66.77-4.43,2.49l2.2.9c.47-.9,1.35-1.19,2.27-1.19,1.29,0,2.6.76,2.62,2.09v.17c-.45-.25-1.41-.63-2.6-.63-2.37,0-4.79,1.28-4.79,3.66,0,2.18,1.94,3.58,4.13,3.58,1.67,0,2.59-.74,3.17-1.59h.09v1.26h2.4v-6.23c0-2.88-2.2-4.49-5.06-4.49Zm-.3,8.91c-.81,0-1.94-.39-1.94-1.38,0-1.26,1.41-1.74,2.63-1.74,1.09,0,1.61.24,2.27.55-.2,1.5-1.52,2.57-2.96,2.57Zm14.1-8.55l-2.85,7.04h-.09l-2.95-7.04h-2.68l4.43,9.84-2.53,5.48h2.6l6.83-15.32h-2.76Zm-22.38,10.4h2.49v-16.25h-2.49v16.25Z"></path><path class="cls-1" d="m13.89,9.8c-.39.4-.62,1.02-.62,1.83v28.75c0,.81.23,1.43.62,1.83l.1.09,16.5-16.1v-.38L13.99,9.71l-.1.09Z"></path><path class="cls-3" d="m35.99,31.56l-5.49-5.37v-.38l5.5-5.37.12.07,6.51,3.62c1.86,1.03,1.86,2.72,0,3.75l-6.51,3.61-.13.07Z"></path><path class="cls-4" d="m36.12,31.49l-5.62-5.49-16.6,16.21c.62.63,1.62.71,2.77.08l19.45-10.79Z"></path><path class="cls-2" d="m36.12,20.51l-19.45-10.79c-1.15-.63-2.15-.55-2.77.08l16.6,16.2,5.62-5.49Z"></path></g></svg> 