<?xml version="1.0" encoding="UTF-8"?> <svg xmlns="http://www.w3.org/2000/svg" id="Layer_2" data-name="Layer 2" viewBox="0 0 60.88 11.12"><defs><style> .cls-1 { fill: #2cac73; } .cls-1, .cls-2 { stroke-width: 0px; } .cls-2 { fill: #221e1f; } </style></defs><g id="Layer_1-2" data-name="Layer 1"><g><path class="cls-2" d="m0,8.72V2.62h1.93l1.37,2.68h.29l1.36-2.68h1.92v6.11h-1.32v-4.39h-.29l-1.19,2.29h-1.27l-1.19-2.29h-.29v4.39H0Z"></path><path class="cls-2" d="m10.73,11.12h-1.38l1.26-3-2.59-5.51h1.43l1.7,3.68h.31l1.55-3.68h1.39l-3.67,8.51Z"></path><path class="cls-2" d="m19.42,6.77h1.34c-.1.64-.39,1.15-.87,1.54-.48.38-1.09.58-1.82.58-.94,0-1.67-.3-2.21-.89-.54-.6-.81-1.37-.81-2.32s.27-1.72.81-2.32c.54-.59,1.28-.89,2.21-.89.74,0,1.34.18,1.81.55.47.37.75.86.83,1.46h-1.34c-.2-.58-.63-.86-1.28-.86-.57,0-.99.19-1.27.58-.28.38-.41.87-.41,1.46s.14,1.11.41,1.49c.28.39.7.58,1.27.58.75,0,1.2-.32,1.33-.96Z"></path><path class="cls-2" d="m22.7,3.35c.56-.6,1.31-.89,2.25-.89s1.69.3,2.25.89c.56.6.83,1.37.83,2.31s-.28,1.73-.83,2.32c-.56.6-1.31.89-2.25.89s-1.69-.3-2.25-.89c-.56-.6-.83-1.37-.83-2.32s.28-1.71.83-2.31Zm.97,3.78c.3.4.72.59,1.28.59s.99-.2,1.28-.59.44-.89.44-1.47-.15-1.06-.44-1.46-.72-.59-1.28-.59-.99.2-1.28.59-.44.88-.44,1.46.15,1.07.44,1.47Z"></path><path class="cls-2" d="m29.54,2.62h1.31v.59h.29c.4-.5,1-.74,1.8-.74s1.45.3,1.93.9c.48.6.71,1.37.71,2.3s-.24,1.72-.71,2.32-1.12.9-1.93.9-1.38-.25-1.75-.74h-.29v2.99h-1.36V2.62Zm3.01,1c-.56,0-.98.2-1.27.59-.28.39-.43.88-.43,1.46s.14,1.08.43,1.48c.28.39.71.59,1.27.59s.95-.19,1.24-.57.43-.88.43-1.49-.14-1.11-.43-1.49-.7-.56-1.24-.56Z"></path><path class="cls-1" d="m37.57,3.35c.56-.6,1.31-.89,2.25-.89s1.69.3,2.25.89c.56.6.83,1.37.83,2.31s-.28,1.73-.83,2.32c-.56.6-1.31.89-2.25.89s-1.69-.3-2.25-.89c-.56-.6-.83-1.37-.83-2.32s.28-1.71.83-2.31Zm.97,3.78c.3.4.72.59,1.28.59s.99-.2,1.28-.59.44-.89.44-1.47-.15-1.06-.44-1.46-.72-.59-1.28-.59-.99.2-1.28.59-.44.88-.44,1.46.15,1.07.44,1.47Z"></path><path class="cls-1" d="m48.64,8.72v2.4h-1.33v-2.4h-.14c-.98,0-1.74-.28-2.29-.85s-.82-1.3-.82-2.21.27-1.62.81-2.18c.54-.56,1.29-.85,2.26-.86h.18V0h1.33v2.62h.18c.97.02,1.72.3,2.26.86s.81,1.29.81,2.19-.29,1.69-.86,2.24c-.57.55-1.37.82-2.39.82Zm-2.8-4.46c-.3.37-.46.84-.46,1.4s.15,1.03.46,1.4c.3.38.74.56,1.31.56h.16v-3.92h-.14c-.58,0-1.02.19-1.32.56Zm2.8,3.37h.13c.58,0,1.02-.19,1.33-.56.31-.38.46-.84.46-1.4s-.15-1.03-.46-1.4c-.31-.37-.75-.56-1.33-.56h-.13v3.92Z"></path><path class="cls-1" d="m57.62,8.72v2.4h-1.33v-2.4h-.14c-.98,0-1.74-.28-2.29-.85s-.82-1.3-.82-2.21.27-1.62.81-2.18c.54-.56,1.29-.85,2.26-.86h.18V0h1.33v2.62h.18c.97.02,1.72.3,2.26.86s.81,1.29.81,2.19-.29,1.69-.86,2.24c-.57.55-1.37.82-2.39.82Zm-2.8-4.46c-.3.37-.46.84-.46,1.4s.15,1.03.46,1.4c.3.38.74.56,1.31.56h.16v-3.92h-.14c-.58,0-1.02.19-1.32.56Zm2.8,3.37h.13c.58,0,1.02-.19,1.33-.56.31-.38.46-.84.46-1.4s-.15-1.03-.46-1.4c-.31-.37-.75-.56-1.33-.56h-.13v3.92Z"></path></g></g></svg> 