<?xml version="1.0" encoding="UTF-8"?> <svg xmlns="http://www.w3.org/2000/svg" id="Layer_2" data-name="Layer 2" viewBox="0 0 27.67 33.17"><defs><style> .cls-1 { fill: #fff; stroke-width: 0px; } </style></defs><g id="Layer_1-2" data-name="Layer 1"><path class="cls-1" d="m23.11,17.64c-.04-4.19,3.52-6.23,3.68-6.32-2.01-2.86-5.14-3.26-6.23-3.29-2.62-.27-5.17,1.53-6.5,1.53s-3.42-1.5-5.64-1.46c-2.85.04-5.52,1.65-6.99,4.15-3.02,5.1-.77,12.59,2.13,16.72,1.45,2.02,3.14,4.27,5.35,4.19,2.17-.09,2.98-1.35,5.59-1.35s3.35,1.35,5.61,1.3c2.33-.04,3.79-2.03,5.19-4.07,1.67-2.31,2.35-4.59,2.37-4.71-.05-.02-4.52-1.68-4.56-6.7Z"></path><path class="cls-1" d="m18.85,5.32c1.17-1.42,1.96-3.35,1.74-5.32-1.69.07-3.8,1.14-5.01,2.53-1.07,1.22-2.03,3.23-1.79,5.12,1.89.14,3.84-.93,5.06-2.33Z"></path></g></svg> 