<?xml version="1.0" encoding="UTF-8"?> <svg xmlns="http://www.w3.org/2000/svg" xmlns:xlink="http://www.w3.org/1999/xlink" id="Layer_2" data-name="Layer 2" viewBox="0 0 30.75 33.44"><defs><style> .cls-1 { fill: url(#linear-gradient); } .cls-1, .cls-2, .cls-3, .cls-4 { stroke-width: 0px; } .cls-2 { fill: url(#linear-gradient-4); } .cls-3 { fill: url(#linear-gradient-2); } .cls-4 { fill: url(#linear-gradient-3); } </style><linearGradient id="linear-gradient" x1="15.58" y1="133.16" x2="-6.23" y2="155.5" gradientTransform="translate(0 164.71) scale(1 -1)" gradientUnits="userSpaceOnUse"><stop offset="0" stop-color="#00a0ff"></stop><stop offset="0" stop-color="#00a1ff"></stop><stop offset=".26" stop-color="#00beff"></stop><stop offset=".51" stop-color="#00d2ff"></stop><stop offset=".76" stop-color="#00dfff"></stop><stop offset="1" stop-color="#00e3ff"></stop></linearGradient><linearGradient id="linear-gradient-2" x1="31.77" y1="147.99" x2="-.44" y2="147.99" gradientTransform="translate(0 164.71) scale(1 -1)" gradientUnits="userSpaceOnUse"><stop offset="0" stop-color="#ffe000"></stop><stop offset=".41" stop-color="#ffbd00"></stop><stop offset=".78" stop-color="orange"></stop><stop offset="1" stop-color="#ff9c00"></stop></linearGradient><linearGradient id="linear-gradient-3" x1="8.74" y1="140.2" x2="-20.83" y2="170.5" gradientTransform="translate(0 164.71) scale(1 -1)" gradientUnits="userSpaceOnUse"><stop offset="0" stop-color="#ff3a44"></stop><stop offset="1" stop-color="#c31162"></stop></linearGradient><linearGradient id="linear-gradient-4" x1="-14.04" y1="132.45" x2="-.83" y2="145.98" gradientTransform="translate(0 164.71) scale(1 -1)" gradientUnits="userSpaceOnUse"><stop offset="0" stop-color="#32a071"></stop><stop offset=".07" stop-color="#2da771"></stop><stop offset=".48" stop-color="#15cf74"></stop><stop offset=".8" stop-color="#06e775"></stop><stop offset="1" stop-color="#00f076"></stop></linearGradient></defs><g id="Layer_1-2" data-name="Layer 1"><path class="cls-1" d="m.62.52c-.39.4-.62,1.02-.62,1.83v28.75c0,.81.23,1.43.62,1.83l.1.09,16.5-16.1v-.38L.71.42l-.1.09Z"></path><path class="cls-3" d="m22.71,22.28l-5.49-5.37v-.38l5.5-5.37.12.07,6.51,3.62c1.86,1.03,1.86,2.72,0,3.75l-6.51,3.61-.13.07Z"></path><path class="cls-4" d="m22.84,22.21l-5.62-5.49L.62,32.92c.62.63,1.62.71,2.77.08l19.45-10.79Z"></path><path class="cls-2" d="m22.84,11.22L3.39.43C2.24-.19,1.23-.12.62.52l16.6,16.2,5.62-5.49Z"></path></g></svg> 