<?xml version="1.0" encoding="UTF-8"?> <svg xmlns="http://www.w3.org/2000/svg" xmlns:xlink="http://www.w3.org/1999/xlink" version="1.1" id="Layer_2_00000078743418835340180550000011027592277113072537_" x="0px" y="0px" viewBox="0 0 180 52" style="enable-background:new 0 0 180 52;" xml:space="preserve"> <style type="text/css"> .st0{fill:#FFFFFF;} .st1{fill:#A6A6A6;} .st2{fill-rule:evenodd;clip-rule:evenodd;fill:#2B71F6;} .st3{fill:#2B71F6;} </style> <g id="Layer_1-2"> <path class="st0" d="M179,46c0,2.8-2.3,5-5.1,5H6.1C3.3,51,1,48.8,1,46V6c0-2.8,2.3-5,5.1-5h167.7c2.8,0,5.1,2.2,5.1,5L179,46 L179,46z"></path> <path class="st1" d="M173.3,1c3.1,0,5.6,2.5,5.6,5.5v39c0,3-2.5,5.5-5.6,5.5H6.7c-3.1,0-5.6-2.5-5.6-5.5v-39c0-3,2.5-5.5,5.6-5.5 H173.3L173.3,1z M173.3,0H6.7C3,0,0,2.9,0,6.5v39C0,49.1,3,52,6.7,52h166.7c3.7,0,6.7-2.9,6.7-6.5v-39C180,2.9,177,0,173.3,0 L173.3,0z"></path> </g> <g> <path class="st2" d="M30.1,45.9c-9,0-13.5,0-16.3-2.8C11,40.3,11,35.8,11,26.8v-1.6c0-9,0-13.5,2.8-16.3c2.8-2.8,7.3-2.8,16.3-2.8 h0h1.6l0,0c9,0,13.5,0,16.3,2.8c2.8,2.8,2.8,7.3,2.8,16.3v1.6c0,9,0,13.5-2.8,16.3c-2.8,2.8-7.3,2.8-16.3,2.8H30.1z"></path> <path class="st0" d="M34,30.6c-1.1-0.3-1.8-1.2-1.8-2.3v-13c0-1.3,1.2-2.2,2.4-1.9l7.7,1.9c1.1,0.3,1.8,1.2,1.8,2.3v13 c0,1.3-1.2,2.2-2.4,1.9L34,30.6z"></path> <path class="st0" d="M19.5,36.6c-1.1-0.3-1.8-1.2-1.8-2.3v-13c0-1.3,1.2-2.2,2.4-1.9l7.7,1.9c1.1,0.3,1.8,1.2,1.8,2.3v13 c0,1.3-1.2,2.2-2.4,1.9L19.5,36.6z"></path> <path class="st0" d="M26.8,33.6c-1.1-0.3-1.8-1.2-1.8-2.3v-13c0-1.3,1.2-2.2,2.4-1.9l7.7,1.9c1.1,0.3,1.8,1.2,1.8,2.3v13 c0,1.3-1.2,2.2-2.4,1.9L26.8,33.6z"></path> <path class="st3" d="M31.8,34.9L31.8,34.9c-0.3-0.1-0.6-0.4-0.6-0.7l-0.3-9.9c-0.1-1.3-1.1-2.4-2.1-2.7c-0.1,0-0.1,0-0.2,0.1l0,0 c0,0,0,0.1,0,0.2c0.3,0.2,0.9,0.8,0.9,1.9l0,10.6L31.8,34.9z"></path> <path class="st3" d="M39.1,31.9L39.1,31.9c-0.3-0.1-0.6-0.4-0.6-0.7l-0.3-9.9c-0.1-1.3-1.1-2.4-2.1-2.7c-0.1,0-0.1,0-0.2,0.1l0,0 c0,0,0,0.1,0,0.2c0.3,0.2,0.9,0.8,0.9,1.9l0,10.6L39.1,31.9z"></path> <path d="M73.8,29c3-0.8,5-3.1,5-6.1c0-3.7-3-6.4-7.2-6.4h-7.5v20.1h3.4v-7.4H70l5.3,7.4h4.1L73.8,29z M71.6,19.7 c2.2,0,3.6,1.3,3.6,3.2c0,1.9-1.5,3.2-3.6,3.2h-4v-6.4H71.6z"></path> <path d="M87.2,36.9c1.8,0,3.5-0.9,4.4-2.5l0.7,2.2h2.5V21.8h-3.3v8.6c0,2.1-1.4,3.6-3.3,3.6c-1.9,0-3.2-1.5-3.2-3.6v-8.6h-3.3v8.9 C81.6,34.3,84,36.9,87.2,36.9z"></path> <path d="M105.3,36.9c3.8,0,7-2.2,7-5.8c0-4-3.3-5.2-6.1-6.2c-2.2-0.7-4.1-1.4-4.1-3.2c0-1.6,1.5-2.4,3.2-2.4c1.8,0,3.1,0.9,3.8,2.5 l3.3-0.5c-1-3.1-3.6-5.1-7.2-5.1c-3.7,0-6.6,2.1-6.6,5.7c0,4,3.3,5.2,6.1,6.1c2.2,0.7,4.1,1.4,4.1,3.2c0,1.6-1.5,2.5-3.4,2.5 c-2.2,0-3.4-1.1-4.5-3l-3.3,0.6C98.4,34.8,101.5,36.9,105.3,36.9z"></path> <path d="M121.2,33.8c-1.1,0-1.7-0.5-1.7-1.7v-7.5h4.5v-2.8h-4.5v-4.3h-2.5l-0.8,4.3h-2.4v2.8h2.4v7.5c0,2.9,1.7,4.5,5,4.5h2.8 l0.3-2.8H121.2z"></path> <path d="M133.8,36.9c4.7,0,8-3.2,8-7.7s-3.3-7.7-8-7.7c-4.7,0-8,3.2-8,7.7S129.1,36.9,133.8,36.9z M133.8,33.9 c-2.7,0-4.5-1.9-4.5-4.7c0-2.8,1.8-4.7,4.5-4.7s4.5,1.9,4.5,4.7C138.3,32,136.5,33.9,133.8,33.9z"></path> <path d="M147.9,36.6v-8.7c0-1.9,0.9-2.9,2.9-2.9h1.9l-0.3-3.1h-0.6c-1.8,0-3.1,0.5-4.1,2.1l-0.6-2.1h-2.5v14.8H147.9z"></path> <path d="M169,29c0-4.3-3.2-7.5-7.8-7.5c-4.5,0-7.8,3.2-7.8,7.7c0,4.5,3.2,7.7,7.8,7.7c3.1,0,6-1.5,7.2-4.3l-3.1-0.5 c-0.7,1.1-2.1,1.8-3.8,1.8c-2.5,0-4.2-1.5-4.5-3.8h12C169,29.8,169,29.4,169,29z M161.2,24.4c2.1,0,3.6,1.3,4.2,3.2h-8.3 C157.7,25.6,159.2,24.4,161.2,24.4z"></path> </g> </svg> 