<?xml version="1.0" encoding="UTF-8"?> <svg xmlns="http://www.w3.org/2000/svg" width="192" height="193" viewBox="0 0 192 193" fill="none"><path d="M188.481 175.791L175.791 188.481C174.676 189.6 173.352 190.488 171.893 191.093C170.434 191.699 168.871 192.011 167.291 192.011C165.712 192.011 164.148 191.699 162.689 191.093C161.231 190.488 159.906 189.6 158.791 188.481L102.221 131.911L82.9912 182.071L82.8612 182.401C81.6351 185.257 79.5962 187.688 76.9984 189.393C74.4006 191.099 71.3587 192.002 68.2512 191.991H67.4712C64.2315 191.855 61.1117 190.727 58.5343 188.76C55.9569 186.792 54.0463 184.081 53.0612 180.991L0.791211 20.9112C-0.125547 18.1101 -0.248244 15.1097 0.436734 12.2431C1.12171 9.37649 2.58757 6.75572 4.67165 4.67165C6.75572 2.58757 9.37649 1.12171 12.2431 0.436734C15.1097 -0.248244 18.1101 -0.125547 20.9112 0.791211L180.991 53.0612C184.051 54.0847 186.729 56.0091 188.676 58.582C190.622 61.1549 191.745 64.256 191.897 67.4785C192.05 70.701 191.225 73.8944 189.53 76.6395C187.835 79.3847 185.35 81.5535 182.401 82.8612L182.071 82.9912L131.911 102.261L188.481 158.821C190.731 161.072 191.996 164.124 191.996 167.306C191.996 170.489 190.731 173.541 188.481 175.791Z" fill="#FF7512"></path></svg> 