<?xml version="1.0" encoding="UTF-8"?> <svg xmlns="http://www.w3.org/2000/svg" width="20" height="24" viewBox="0 0 20 24" fill="none"><path d="M12.7395 16.6607V19.4866C12.7395 20.0848 12.5641 20.3839 12.2132 20.3839C12.0063 20.3839 11.8039 20.2857 11.6059 20.0893V16.058C11.8039 15.8616 12.0063 15.7634 12.2132 15.7634C12.5641 15.7634 12.7395 16.0625 12.7395 16.6607ZM17.3009 16.6741V17.2902H16.0864V16.6741C16.0864 16.067 16.2888 15.7634 16.6937 15.7634C17.0985 15.7634 17.3009 16.067 17.3009 16.6741ZM4.26451 13.7545H5.7085V12.4955H1.49798V13.7545H2.91498V21.375H4.26451V13.7545ZM8.15115 21.375H9.35223V14.7589H8.15115V19.8214C7.88124 20.1964 7.62483 20.3839 7.38192 20.3839C7.21997 20.3839 7.12551 20.2902 7.09852 20.1027C7.08952 20.0759 7.08502 19.9196 7.08502 19.6339V14.7589H5.88394V19.9955C5.88394 20.433 5.91993 20.7589 5.9919 20.9732C6.09987 21.3036 6.36077 21.4688 6.77463 21.4688C7.20648 21.4688 7.66532 21.1964 8.15115 20.6518V21.375ZM13.9406 19.3929V16.7545C13.9406 16.1027 13.9001 15.6607 13.8192 15.4286C13.6662 14.9286 13.3468 14.6786 12.861 14.6786C12.4112 14.6786 11.9928 14.9196 11.6059 15.4018V12.4955H10.4049V21.375H11.6059V20.7321C12.0108 21.2232 12.4291 21.4688 12.861 21.4688C13.3468 21.4688 13.6662 21.2232 13.8192 20.7321C13.9001 20.4911 13.9406 20.0446 13.9406 19.3929ZM18.502 19.2589V19.0848H17.274C17.274 19.5402 17.265 19.8125 17.247 19.9018C17.184 20.2232 17.004 20.3839 16.7072 20.3839C16.2933 20.3839 16.0864 20.0759 16.0864 19.4598V18.2946H18.502V16.9152C18.502 16.2098 18.3806 15.692 18.1377 15.3616C17.7868 14.9063 17.3099 14.6786 16.7072 14.6786C16.0954 14.6786 15.614 14.9063 15.2632 15.3616C15.0112 15.692 14.8853 16.2098 14.8853 16.9152V19.2321C14.8853 19.9375 15.0157 20.4554 15.2767 20.7857C15.6275 21.2411 16.1134 21.4688 16.7341 21.4688C17.3819 21.4688 17.8677 21.2321 18.1916 20.7589C18.3536 20.5179 18.448 20.2768 18.475 20.0357C18.493 19.9554 18.502 19.6964 18.502 19.2589ZM10.2969 7.03125V4.21875C10.2969 3.60268 10.1035 3.29464 9.7166 3.29464C9.32973 3.29464 9.1363 3.60268 9.1363 4.21875V7.03125C9.1363 7.65625 9.32973 7.96875 9.7166 7.96875C10.1035 7.96875 10.2969 7.65625 10.2969 7.03125ZM20 17.0893C20 19.1786 19.883 20.7411 19.6491 21.7768C19.5232 22.3036 19.2623 22.7455 18.8664 23.1027C18.4705 23.4598 18.0117 23.6652 17.4899 23.7188C15.8345 23.9063 13.3378 24 10 24C6.66217 24 4.16554 23.9063 2.51012 23.7188C1.9883 23.6652 1.52722 23.4598 1.12686 23.1027C0.726496 22.7455 0.467836 22.3036 0.350877 21.7768C0.116959 20.7768 0 19.2143 0 17.0893C0 15 0.116959 13.4375 0.350877 12.4018C0.476833 11.875 0.737742 11.433 1.1336 11.0759C1.52946 10.7188 1.9928 10.5089 2.52362 10.4464C4.17004 10.2679 6.66217 10.1786 10 10.1786C13.3378 10.1786 15.8345 10.2679 17.4899 10.4464C18.0117 10.5089 18.4728 10.7188 18.8731 11.0759C19.2735 11.433 19.5322 11.875 19.6491 12.4018C19.883 13.4018 20 14.9643 20 17.0893ZM6.53171 0H7.90823L6.2753 5.34375V8.97321H4.92578V5.34375C4.79982 4.68304 4.52542 3.73661 4.10256 2.50446C3.76968 1.58482 3.47728 0.75 3.22537 0H4.65587L5.61404 3.52232L6.53171 0ZM11.525 4.45982V6.80357C11.525 7.52679 11.399 8.05357 11.1471 8.38393C10.8052 8.83929 10.3284 9.06696 9.7166 9.06696C9.11381 9.06696 8.64148 8.83929 8.2996 8.38393C8.04768 8.04464 7.92173 7.51786 7.92173 6.80357V4.45982C7.92173 3.74554 8.04768 3.22321 8.2996 2.89286C8.64148 2.4375 9.11381 2.20982 9.7166 2.20982C10.3284 2.20982 10.8052 2.4375 11.1471 2.89286C11.399 3.22321 11.525 3.74554 11.525 4.45982ZM16.0459 2.29018V8.97321H14.8178V8.23661C14.341 8.79018 13.8776 9.06696 13.4278 9.06696C13.0139 9.06696 12.7485 8.90179 12.6316 8.57143C12.5596 8.35714 12.5236 8.02232 12.5236 7.56696V2.29018H13.7517V7.20536C13.7517 7.5 13.7562 7.65625 13.7652 7.67411C13.7922 7.87054 13.8866 7.96875 14.0486 7.96875C14.2915 7.96875 14.5479 7.77679 14.8178 7.39286V2.29018H16.0459Z" fill="white"></path></svg> 